<svg id="Layer_1" data-name="Layer 1" xmlns="http://www.w3.org/2000/svg" viewBox="0 0 687.98 552.23"><defs><style>.cls-1{fill:#00ff7a;}</style></defs><path class="cls-1" d="M545.31,302.53c-3.28,19.72-6.76,39.4-9.77,59.16-2.66,17.49-5.22,35-6.89,52.62-.4,4.19,3,8.72,4.53,13.11,2.33,6.51-3.56,26.29-9.42,29.59-2.44,1.37-7,2.07-8.81.69-2.29-1.8-2.83-5.92-3.9-9.12-.25-.76.64-1.83.62-2.75-.06-2.8-.3-5.59-.47-8.38-3.48,1.13-7.37,1.67-10.22,3.68-1.07.75,0,5,.58,7.52.86,3.78,4,8.22,2.89,11.06-3.79,9.55-11.77,9.24-20.14-.1-7.39-8.24-8.73-19.49-.64-26.77,9.84-8.84,10.47-19.48,10.66-31,.56-35.18.84-70.38,1.94-105.55.47-15.12,3-29.88,12.08-43,12.22-17.7,30.74-21.31,49.85-24.24,8.85-1.36,17.81-2.29,26.47-4.43,2.24-.55,4.85-4.85,5-7.57.69-11.29-3.81-20.81-10.35-30.06-11.61-16.43-7.74-39.21,12.32-48.12,15-6.66,29-7.35,41.91,3.08,10.63,8.57,17.84,20.1,14.38,34.07-1.88,7.61-7.48,14.82-12.86,20.93-6.6,7.52-11.07,15.41-11.81,25.4-.48,6.41,4.34,8,8.74,8.47,9.48,1,19.06,1,28.59,1.51,32.49,1.59,51,17.88,54,50.11,2.67,29,3.22,58.25,4.74,87.39.55,10.65-.34,21.69,2.3,31.81,1.84,7.05,7.74,13.7,13.3,19,14.58,13.85,9.29,27.66-.21,38.23-2.26,2.5-10.29,4-11.24,2.73-3.34-4.51-7.09-10.8-6.36-15.78,1.29-8.64-4.53-12-8.73-16.6-1.09-1.21-4.78-.84-6.83-.05-.76.3-.21,3.88-.35,6-.24,3.68.62,8.06-1.07,10.91-4.33,7.32-12.11,5.8-16.32-3.45-3.45-7.57-5.2-15.65-.76-23.78a9,9,0,0,0,.79-5.37c-2.93-17.64-6.52-35.18-8.93-52.89-3-21.9-5-43.94-7.53-65.9-.19-1.59-1.83-3-2.8-4.5-.86,1.67-2.55,3.37-2.47,5,1,20.76,1.69,41.58,3.69,62.25,2.36,24.3,6.11,48.46,8.87,72.73.64,5.55-1.64,10.13-8.41,10.71a4,4,0,0,0-2.69,2.65c-5.24,31.62-10.32,63.27-15.5,94.9a35.22,35.22,0,0,1-2.15,7.73c-7.91,19.16,3.07,32.69,14.54,45.15,9.48,10.29,10.6,19.91-1.63,28.36-10.68,7.38-23.19,12.09-34.81,18.15a9,9,0,0,0-3.63,3.93c-2,4.12-2.6,9.32-5.5,12.5-11.08,12.16-25.43,19.29-40.95,24.13-6.79,2.12-13.72,3.78-20.52,5.85-11.26,3.42-21.53,2.48-32.69-2.47-7.53-3.34-17.23-2-26-2.31-11.53-.43-23.08-.48-34.63-.65-18-.25-36.11-.41-54.17-.73-5.12-.09-10.23-.62-15.35-.9-27.46-1.5-54.95-2.77-82.4-4.55q-28-1.82-56-4.82c-20.26-2.16-40.54-4.42-60.63-7.72-11.59-1.9-23-4.3-32.22-14-3.45-3.63-13.76-1.78-20.72-.82-13.39,1.85-26.54,5.71-39.95,7.14-13.69,1.46-27.11-.79-38.29-10.1-5.41-4.51-5.73-9.76-1.68-15.19,7.54-10.13,18.88-14.88,30.35-16.62A182.42,182.42,0,0,1,132,609.21c12.82,1.12,25.35,5.49,38.05,8.23a13.29,13.29,0,0,0,7-.11c23.42-8.62,47.42-14.38,72.49-14.74,23.58-.34,47.18-.86,70.75-.37,11.41.24,22.78,2.56,34.15,4q27.38,3.62,54.72,7.39c11.28,1.55,22.51,4,33.84,4.59,19,1,38.13,1.66,57.12.77,21.13-1,42.19-3.75,63.25-6,7.92-.86,14.33-4.35,15.87-13.13,2.28-13,4.58-26,6.38-39a12.8,12.8,0,0,0-2.34-8.46c-15.3-20.77-26.81-43.24-30.87-68.93-1.73-10.93-2.43-22-3.16-33.1-.25-3.88-.54-5.62-5.2-4.52-6,1.41-9.35-2.69-8.12-9.44,2.48-13.73,5.65-27.37,7.5-41.18,1.8-13.4,2.29-27,3.39-40.46.36-4.37,1.32-8.74,1.22-13.09-.31-13.08-1-26.15-1.55-39.22ZM709,306.15l.74-.09c-1.53-11-2.89-21.95-4.67-32.87-.73-4.47-1.52-9.27-3.72-13.09-8.22-14.29-21.48-20.68-37.47-21.68-9.16-.57-18.37-.63-27.55-.47-1.52,0-3.91,2.13-4.34,3.7-2,7.34-2.82,15-5.26,22.23-6.94,20.41-14.42,40.64-21.83,60.88-.58,1.61-2.68,4.16-3.4,3.95-2.09-.61-4.69-2-5.54-3.81a88.33,88.33,0,0,1-5.4-15.09c-6.14-23.61-12-47.28-18.23-70.86-.47-1.76-3.37-4.27-5-4.13-9.31.82-18.76,1.54-27.8,3.76-12.7,3.12-25,9.72-28.68,22.42-4.8,16.65-7.27,34.3-8.25,51.66-1.81,32-1.74,64.07-2.63,96.1-.11,4,.47,6.42,5.09,6.11a23.62,23.62,0,0,1,6.88.1c8.36,2,11.07-1.84,11.57-9.68.83-13.14,1.89-26.31,3.74-39.34,2.42-17,5.72-33.87,8.59-50.8,1.14-6.72,1.82-13.55,3.45-20.16.38-1.55,3.78-3.35,5.7-3.26s4.42,2,5.4,3.86c1.31,2.41,1.45,5.47,2,8.28,3.47,18.74,3.43,37.58,1.08,56.42-2.85,22.86-5.65,45.73-9.17,68.49-1.55,10.09-2.35,9.5,8.11,9.1,12-.46,21.79-5.13,28.16-15,5.45-8.43,9.31-17.88,14-26.81.8-1.52,2.29-2.69,3.46-4,1.43,1.37,3.16,2.55,4.18,4.18.86,1.38,1,3.27,1.28,5,2.71,14.63,11.87,24.28,25.48,28.2,10.43,3,21.75,2.86,32.64,4.39,5.56.79,6.63-1.47,6-6.5-4-32.55-8.16-65.09-11.52-97.71-1.25-12.07-.83-24.35-.52-36.52.2-8.05,7.16-13.42,11.5-9.42,3.32,3.06,6.59,7.55,7.28,11.82,2.19,13.52,3.09,27.24,4.62,40.87,2.11,18.81,4.18,37.63,6.63,56.4.73,5.57,1,13.58,4.52,15.79,4,2.55,11.31-.21,17.19-.42,5.38-.19,7.19-2.58,6.86-8C712.34,368.77,710.73,337.46,709,306.15ZM597,407.6c-.26.64-.8,1.93-1.34,3.22-7,16.55-17.76,28.82-36,33.24-1.51.36-3.43,3.52-3.32,5.26.59,8.76,2.28,17.44,2.68,26.2,1.15,25.47,12.95,46.78,25.77,67.74.64,1,2.09,1.59,3.61,2.69.66-7.82,1.71-14.65,1.75-21.49.15-27.45-.08-54.9.1-82.35,0-1.93,2.13-3.85,3.27-5.78,1.14,1.86,3.19,3.68,3.27,5.59.7,16.2,2,32.46,1.28,48.62-1,23.62-3.71,47.17-5.43,70.76-1.47,20.38-4.69,40.22-14.39,58.59-2.92,5.53-2.43,11.13,3.88,14.13,5.46,2.59,11.39,6,17.07,5.86,5.1-.07,11.48-3.22,14.83-7.12,3.57-4.18,4.61-10.73,6.15-16.41,6.95-25.7,14.74-51.24,20.23-77.26,6.34-30.06,10.46-60.58,15.86-90.84,1.12-6.29-1-8.09-6.92-8.11-13.13-.05-26.17-1.55-35.84-11.61C607.37,422.22,602.51,414.74,597,407.6Zm44.77-233c-1.37-15.09-5.78-24.88-15.83-30.93a27,27,0,0,0-26.26-1.34c-6.2,3-13.15,6.71-16.82,12.1-7.07,10.39-3.38,21.79,3.12,31.1,7.25,10.38,11.31,21.19,10.66,33.71-.3,5.88,4,7.23,7.78,6.83,4.19-.45,11.48-2.76,11.66-4.77,1.17-13.15,8.84-21.75,17.21-30.77C637.85,185.58,639.89,178.23,641.73,174.61Zm-43.7,143,3,0a9.68,9.68,0,0,0,.77-1.5c7.88-25.11,15.92-50.16,23.47-75.36,1.84-6.12-3.93-10.86-10.26-9.87a59.07,59.07,0,0,1-13.54.64c-3.18-.25-6.43-3-9.35-2.61-12.66,1.86-13.74,3.78-11.54,16.64.13.76.12,1.54.3,2.28Q589.44,282.71,598,317.61ZM615.1,643c-7.12,1.61-12.14,4.28-16.38,3.36-7.58-1.66-14.61-5.69-22-8.28-2.61-.91-6-1.42-8.48-.5A239.59,239.59,0,0,0,542,648.83a73,73,0,0,0-16.78,11.91c-2.3,2.21-4.13,8.5-2.77,10.18,3,3.71,8.14,7.88,12.48,8,27.82.6,51.73-10.43,73.27-27.19C610.48,649.91,611.93,647,615.1,643Zm97.45-231.59-1.11,1.41c-4.34.6-8.67,1.48-13,1.72-8.6.46-10.66,6.72-11.28,13.31-.36,3.78,1.13,7.92,2.55,11.6.62,1.6,3.16,2.47,4.82,3.67,0-1.84.53-3.84,0-5.49-2.53-7.5.82-15.15,7.45-16.52,11.33-2.35,27.62,14.15,23.37,25.05-1,2.63.32,6.17.57,9.3,1.89-2,3.83-4,5.66-6.08a12.52,12.52,0,0,0,1.86-2.89c2.51-5.36,4.06-10.85,0-16.12a105.51,105.51,0,0,0-10.69-12.55C719.83,415.08,716,413.46,712.55,411.36ZM518.47,450.58l2.69.49c1.85-4.84,3.57-9.74,5.58-14.51,3-7.09-.52-13.22-8.11-14.16-4.33-.53-8.62-1.85-12.95-1.95a11.16,11.16,0,0,0-7.18,2.74c-3,2.83-5.15,6.58-7.85,9.77-6.89,8.14-7,14.6.14,22.7,1.59,1.78,4.36,2.51,6.59,3.72-.31-2.65-.47-5.33-1-7.94-.21-1-1.89-1.95-1.8-2.81.44-4.16.23-8.91,2.27-12.2,1.58-2.55,6-4.1,9.42-4.54s8,0,10.16,2,2,6.56,2.47,10.05C519.17,446.12,518.64,448.37,518.47,450.58ZM622.11,629.89c9.71.75,33.84-12.76,36.95-20.47.91-2.25.44-5.19.12-7.76-.16-1.33-1.38-2.54-2.12-3.8-1.2.7-2.39,1.43-3.61,2.11l-19.2,10.65c-1.59.88-3.91,1.39-4.62,2.74C626.93,618.52,624.75,624,622.11,629.89Zm17.72-56.61c-3,10.88-5.73,20.75-9.16,33.19,6.59-3.71,11.49-5.7,15.35-8.94,2.13-1.78,4.16-6.31,3.32-8.48C647.33,583.84,643.6,579.28,639.83,573.28Z" transform="translate(-56.01 -134)"/></svg>