<?xml version="1.0" encoding="UTF-8"?>
<svg id="Layer_1" data-name="Layer 1" xmlns="http://www.w3.org/2000/svg" viewBox="0 0 687.98 552.23">
  <defs>
    <style>
      .cls-1 {
        fill: #333;
      }
    </style>
  </defs>
  <path class="cls-1" d="M489.3,168.53c-3.28,19.72-6.75,39.4-9.77,59.16-2.67,17.49-5.22,35.02-6.89,52.62-.4,4.19,2.96,8.71,4.53,13.11,2.33,6.5-3.56,26.29-9.42,29.59-2.44,1.37-7.05,2.07-8.81.69-2.29-1.79-2.83-5.92-3.9-9.12-.25-.76.63-1.83.61-2.75-.06-2.79-.3-5.58-.47-8.38-3.48,1.13-7.36,1.67-10.21,3.68-1.07.75,0,4.98.58,7.52.86,3.78,4.02,8.22,2.89,11.06-3.79,9.55-11.77,9.24-20.15-.1-7.38-8.24-8.73-19.49-.64-26.76,9.84-8.84,10.47-19.48,10.66-30.96.56-35.19.84-70.38,1.94-105.55.47-15.12,3.01-29.88,12.08-43.01,12.22-17.69,30.75-21.3,49.86-24.24,8.85-1.36,17.81-2.29,26.47-4.43,2.23-.55,4.85-4.85,5.01-7.57.69-11.29-3.81-20.81-10.35-30.06-11.62-16.43-7.75-39.21,12.32-48.12,14.99-6.66,28.96-7.35,41.91,3.09,10.63,8.57,17.84,20.09,14.38,34.06-1.88,7.62-7.48,14.82-12.86,20.94-6.6,7.51-11.07,15.41-11.81,25.4-.48,6.41,4.34,8,8.74,8.47,9.48,1.01,19.06,1.04,28.6,1.51,32.48,1.59,51.03,17.88,54,50.12,2.67,29.03,3.23,58.25,4.74,87.38.55,10.65-.34,21.7,2.3,31.81,1.84,7.05,7.74,13.7,13.3,18.98,14.58,13.84,9.28,27.66-.21,38.23-2.25,2.51-10.29,4.03-11.24,2.74-3.34-4.51-7.09-10.81-6.35-15.78,1.28-8.64-4.54-11.97-8.73-16.6-1.1-1.21-4.78-.84-6.83-.05-.77.3-.21,3.88-.35,5.96-.24,3.68.62,8.06-1.07,10.91-4.34,7.32-12.11,5.8-16.32-3.45-3.45-7.57-5.2-15.65-.76-23.78.82-1.5,1.07-3.65.78-5.36-2.92-17.64-6.52-35.18-8.93-52.89-2.97-21.9-4.95-43.94-7.53-65.9-.19-1.59-1.83-3-2.79-4.5-.87,1.66-2.56,3.37-2.48,4.99,1.03,20.76,1.69,41.58,3.7,62.26,2.36,24.3,6.11,48.46,8.87,72.72.63,5.56-1.64,10.13-8.42,10.71-1,.09-2.52,1.61-2.69,2.65-5.24,31.62-10.31,63.26-15.49,94.89-.43,2.63-1.13,5.28-2.15,7.73-7.91,19.16,3.07,32.69,14.54,45.15,9.48,10.29,10.6,19.91-1.63,28.36-10.68,7.38-23.19,12.09-34.81,18.15-1.51.79-2.89,2.38-3.63,3.94-1.98,4.12-2.6,9.31-5.49,12.49-11.08,12.16-25.43,19.3-40.95,24.14-6.79,2.12-13.72,3.78-20.52,5.85-11.26,3.42-21.53,2.48-32.69-2.47-7.53-3.34-17.23-1.98-25.98-2.31-11.53-.43-23.08-.49-34.63-.65-18.06-.26-36.12-.41-54.17-.73-5.12-.09-10.23-.62-15.35-.9-27.47-1.5-54.95-2.77-82.4-4.55-18.69-1.21-37.36-2.82-55.98-4.82-20.26-2.17-40.54-4.42-60.63-7.72-11.59-1.9-22.97-4.3-32.22-14.02-3.46-3.63-13.76-1.78-20.73-.82-13.39,1.85-26.54,5.7-39.95,7.13-13.69,1.46-27.11-.79-38.29-10.1-5.41-4.5-5.73-9.76-1.68-15.19,7.54-10.13,18.88-14.88,30.35-16.62,14.07-2.14,28.73-2.46,42.93-1.22,12.82,1.12,25.35,5.49,38.05,8.23,2.25.49,4.94.65,7.03-.11,23.42-8.62,47.42-14.38,72.49-14.74,23.58-.34,47.18-.86,70.75-.36,11.41.24,22.78,2.55,34.15,4.05,18.25,2.4,36.49,4.89,54.72,7.39,11.28,1.55,22.51,4.01,33.84,4.59,19.01.96,38.13,1.67,57.12.77,21.13-.99,42.19-3.75,63.25-6.03,7.92-.86,14.34-4.35,15.88-13.13,2.28-12.98,4.58-25.97,6.37-39.02.37-2.7-.69-6.23-2.33-8.46-15.3-20.77-26.81-43.24-30.87-68.93-1.73-10.93-2.43-22.04-3.16-33.09-.26-3.89-.55-5.62-5.2-4.53-6.01,1.42-9.35-2.68-8.12-9.44,2.49-13.73,5.65-27.37,7.51-41.18,1.8-13.4,2.28-26.97,3.39-40.45.36-4.37,1.32-8.74,1.21-13.09-.31-13.08-1-26.14-1.54-39.22-.42.03-.84.06-1.26.09ZM653.01,172.16c.25-.03.5-.06.74-.09-1.53-10.96-2.89-21.96-4.67-32.88-.73-4.47-1.52-9.26-3.72-13.09-8.22-14.29-21.48-20.68-37.47-21.68-9.16-.57-18.37-.63-27.54-.47-1.52.03-3.91,2.13-4.34,3.69-2.01,7.34-2.82,15.06-5.26,22.23-6.94,20.41-14.41,40.64-21.82,60.89-.59,1.61-2.69,4.16-3.4,3.95-2.09-.61-4.69-2-5.54-3.81-2.26-4.82-4.06-9.93-5.4-15.1-6.14-23.6-11.99-47.28-18.23-70.85-.47-1.77-3.37-4.27-4.94-4.13-9.32.82-18.76,1.54-27.8,3.76-12.7,3.12-25.02,9.72-28.69,22.42-4.8,16.65-7.27,34.3-8.25,51.66-1.81,31.98-1.74,64.07-2.63,96.11-.11,3.98.47,6.41,5.09,6.11,2.29-.15,4.7-.42,6.88.09,8.36,1.98,11.07-1.83,11.57-9.67.83-13.14,1.9-26.31,3.75-39.35,2.41-16.99,5.72-33.86,8.59-50.79,1.14-6.73,1.82-13.56,3.45-20.16.38-1.56,3.78-3.36,5.71-3.27,1.91.09,4.42,2.04,5.4,3.86,1.3,2.41,1.45,5.47,1.96,8.28,3.47,18.74,3.43,37.58,1.08,56.42-2.85,22.86-5.65,45.74-9.17,68.5-1.56,10.09-2.36,9.5,8.11,9.1,12.02-.46,21.79-5.13,28.16-14.99,5.45-8.43,9.31-17.88,14-26.81.8-1.53,2.29-2.69,3.47-4.02,1.42,1.37,3.16,2.55,4.17,4.17.86,1.38.96,3.27,1.28,4.96,2.72,14.63,11.87,24.28,25.48,28.2,10.43,3.01,21.76,2.86,32.64,4.39,5.56.78,6.63-1.47,6.01-6.5-4-32.55-8.16-65.09-11.52-97.71-1.24-12.07-.83-24.35-.52-36.52.2-8.04,7.17-13.42,11.51-9.42,3.32,3.06,6.59,7.55,7.28,11.82,2.19,13.52,3.09,27.24,4.62,40.87,2.11,18.81,4.18,37.64,6.63,56.41.73,5.57,1.04,13.57,4.52,15.78,4.01,2.55,11.31-.2,17.19-.41,5.38-.19,7.19-2.58,6.86-8.04-1.9-31.29-3.5-62.6-5.21-93.91ZM540.95,273.61c-.26.63-.8,1.92-1.34,3.21-6.95,16.56-17.77,28.82-36.04,33.24-1.5.36-3.43,3.53-3.31,5.27.59,8.75,2.28,17.44,2.68,26.19,1.15,25.47,12.95,46.78,25.77,67.74.64,1.04,2.09,1.59,3.61,2.69.67-7.82,1.71-14.65,1.75-21.49.15-27.45-.07-54.9.1-82.35.01-1.93,2.13-3.85,3.27-5.78,1.14,1.86,3.19,3.68,3.27,5.59.7,16.2,1.99,32.46,1.28,48.62-1.03,23.62-3.72,47.17-5.43,70.76-1.48,20.37-4.7,40.22-14.4,58.59-2.92,5.53-2.43,11.13,3.88,14.13,5.47,2.6,11.39,5.95,17.07,5.87,5.1-.08,11.48-3.22,14.83-7.13,3.58-4.17,4.62-10.73,6.16-16.41,6.95-25.7,14.73-51.24,20.22-77.26,6.34-30.06,10.47-60.58,15.86-90.84,1.12-6.29-.95-8.09-6.92-8.11-13.13-.05-26.17-1.55-35.84-11.61-6.07-6.31-10.93-13.79-16.48-20.92ZM585.72,40.61c-1.37-15.08-5.78-24.87-15.83-30.93-8.24-4.96-17.63-5.47-26.26-1.33-6.2,2.97-13.15,6.7-16.83,12.1-7.06,10.38-3.38,21.79,3.13,31.1,7.25,10.38,11.31,21.19,10.66,33.71-.3,5.88,4.01,7.23,7.78,6.82,4.19-.45,11.48-2.75,11.66-4.77,1.17-13.15,8.84-21.75,17.21-30.77,4.6-4.96,6.64-12.31,8.48-15.94ZM542.02,183.61c1,0,2.01-.01,3.01-.02.26-.5.61-.97.77-1.5,7.88-25.1,15.92-50.16,23.47-75.36,1.83-6.12-3.93-10.86-10.26-9.87-4.45.7-9.06.98-13.54.63-3.18-.24-6.43-3.04-9.35-2.61-12.66,1.86-13.74,3.79-11.54,16.65.13.75.12,1.54.3,2.27,5.7,23.27,11.42,46.53,17.14,69.8ZM559.09,508.95c-7.12,1.61-12.15,4.28-16.38,3.36-7.58-1.65-14.61-5.69-22.02-8.27-2.61-.91-6.04-1.42-8.49-.5-8.91,3.35-17.8,6.92-26.23,11.3-6.05,3.15-11.88,7.2-16.78,11.91-2.3,2.21-4.12,8.5-2.76,10.18,3.01,3.71,8.13,7.88,12.47,7.97,27.82.59,51.73-10.43,73.27-27.19,2.3-1.79,3.75-4.66,6.92-8.75ZM656.54,277.37c-.37.47-.74.94-1.11,1.41-4.35.59-8.68,1.48-13.04,1.71-8.6.47-10.66,6.73-11.28,13.31-.36,3.78,1.13,7.92,2.56,11.6.62,1.6,3.15,2.47,4.82,3.67.02-1.84.53-3.84-.03-5.49-2.53-7.5.82-15.15,7.45-16.52,11.33-2.35,27.62,14.15,23.37,25.05-1.02,2.63.31,6.17.56,9.3,1.9-2.02,3.84-4,5.67-6.08.75-.85,1.37-1.86,1.85-2.89,2.51-5.37,4.06-10.86,0-16.13-3.35-4.35-6.72-8.79-10.69-12.54-2.85-2.69-6.71-4.31-10.13-6.41ZM462.46,316.58c.9.16,1.8.33,2.7.49,1.85-4.84,3.56-9.74,5.57-14.51,2.99-7.09-.52-13.22-8.1-14.16-4.34-.53-8.62-1.85-12.95-1.95-2.42-.05-5.42,1.09-7.18,2.74-3.02,2.83-5.15,6.58-7.86,9.77-6.89,8.14-7.05,14.6.15,22.7,1.58,1.78,4.36,2.51,6.58,3.72-.31-2.65-.47-5.33-1-7.94-.21-1.03-1.9-1.96-1.81-2.81.44-4.16.23-8.91,2.27-12.2,1.58-2.55,6.04-4.09,9.41-4.53,3.36-.43,8.01-.02,10.16,2.04,2.12,2.03,2.03,6.56,2.47,10.05.28,2.15-.26,4.4-.43,6.6ZM566.1,495.89c9.71.75,33.84-12.76,36.94-20.46.91-2.26.44-5.2.12-7.76-.17-1.34-1.38-2.54-2.12-3.81-1.2.71-2.4,1.44-3.62,2.12-6.4,3.56-12.8,7.09-19.2,10.64-1.59.88-3.91,1.39-4.61,2.74-2.7,5.16-4.88,10.6-7.52,16.53ZM583.81,439.29c-3,10.88-5.73,20.75-9.16,33.19,6.59-3.71,11.5-5.7,15.36-8.94,2.13-1.79,4.16-6.31,3.32-8.48-2.01-5.22-5.74-9.77-9.51-15.77Z"/>
</svg>